<svg width="70" height="32" viewBox="0 0 70 32" fill="none" xmlns="http://www.w3.org/2000/svg">
<path d="M32 6.79734C32 7.03372 31.9534 7.26778 31.863 7.48617C31.7725 7.70455 31.6399 7.90298 31.4728 8.07013C31.3056 8.23727 31.1072 8.36986 30.8888 8.46032C30.6704 8.55078 30.4364 8.59734 30.2 8.59734C29.9634 8.59769 29.729 8.55139 29.5104 8.46109C29.2917 8.37078 29.0929 8.23825 28.9255 8.07107C28.7581 7.90389 28.6252 7.70534 28.5346 7.48678C28.444 7.26822 28.3973 7.03394 28.3973 6.79734C28.3972 6.56073 28.4436 6.32642 28.5341 6.10779C28.6246 5.88916 28.7572 5.69051 28.9245 5.52321C29.0918 5.35591 29.2905 5.22323 29.5091 5.13276C29.7277 5.0423 29.9621 4.99583 30.1987 4.996C30.4352 4.99583 30.6694 5.04226 30.8879 5.13264C31.1064 5.22302 31.305 5.35558 31.4723 5.52274C31.6396 5.6899 31.7723 5.88839 31.8629 6.10686C31.9534 6.32534 32 6.56084 32 6.79734ZM22.0653 24.4133C21.6571 24.4193 21.2519 24.3432 20.8736 24.1897C20.4953 24.0363 20.1516 23.8084 19.8629 23.5197C19.5742 23.2311 19.3464 22.8874 19.1929 22.5091C19.0394 22.1308 18.9634 21.7255 18.9693 21.3173H16.2667C16.2667 24.5827 18.8 27.0027 22.008 27.0027C25.216 27.0027 27.8053 24.5267 27.8053 21.3173H25.16C25.1027 23.1187 23.7533 24.4133 22.0653 24.4133ZM28.876 20.6427H31.5213V9.836H28.876V20.6427ZM0 20.644H2.64533V5.33334H0V20.644ZM9.51333 9.49867C6.248 9.49867 3.77067 11.976 3.77067 15.184C3.76427 15.9399 3.90844 16.6894 4.19479 17.389C4.48113 18.0885 4.90392 18.7241 5.43847 19.2585C5.97302 19.7929 6.60865 20.2155 7.30826 20.5017C8.00788 20.7879 8.75748 20.9319 9.51333 20.9253C12.7213 20.9253 15.2547 18.448 15.2547 15.24C15.2547 12.032 12.7773 9.49867 9.51333 9.49867ZM9.51333 18.336C7.76667 18.336 6.41733 16.9853 6.41733 15.184C6.41141 14.7758 6.48744 14.3705 6.64092 13.9922C6.79441 13.6139 7.02224 13.2703 7.31092 12.9816C7.5996 12.6929 7.94326 12.4651 8.32157 12.3116C8.69987 12.1581 9.10512 12.0821 9.51333 12.088C9.92143 12.0823 10.3265 12.1584 10.7047 12.312C11.0828 12.4656 11.4263 12.6934 11.7149 12.9821C12.0034 13.2707 12.2311 13.6143 12.3845 13.9926C12.5379 14.3708 12.6139 14.7759 12.608 15.184C12.608 16.9293 11.3147 18.336 9.51333 18.336ZM27.6933 11.976V9.836H23.9227C23.304 9.556 22.684 9.49867 22.0653 9.49867C18.8 9.49867 16.268 11.976 16.268 15.24C16.268 18.5053 18.8013 20.9253 22.0093 20.9253C25.2173 20.9253 27.7507 18.448 27.7507 15.24C27.7507 14.1147 27.412 13.1013 26.8493 12.3133L27.6933 11.976ZM22.0653 18.336C20.32 18.336 18.9693 16.9853 18.9693 15.184C18.9634 14.7758 19.0394 14.3705 19.1929 13.9922C19.3464 13.6139 19.5742 13.2703 19.8629 12.9816C20.1516 12.6929 20.4953 12.4651 20.8736 12.3116C21.2519 12.1581 21.6571 12.0821 22.0653 12.088C22.4735 12.0821 22.8788 12.1581 23.2571 12.3116C23.6354 12.4651 23.9791 12.6929 24.2677 12.9816C24.5564 13.2703 24.7843 13.6139 24.9377 13.9922C25.0912 14.3705 25.1673 14.7758 25.1613 15.184C25.1613 16.9293 23.7533 18.336 22.0653 18.336Z" fill="#C14F11"/>
<path d="M69.9456 17.732L65.5819 1.49336C65.3096 0.599972 64.6571 0 63.7843 0C62.9116 0 62.203 0.538661 61.9308 1.43205L59.0403 10.8652H48.9557L46.0652 1.43643C45.793 0.543041 45.0844 0.00437896 44.2116 0.00437896C43.3389 0.00437896 42.6303 0.599972 42.4141 1.49774L38.0543 17.732C37.8902 18.3276 38.1104 18.9845 38.5468 19.3436L53.976 32L69.4572 19.3436C69.8896 18.9889 70.1098 18.332 69.9456 17.732Z" fill="#C14F11"/>
</svg>
