<svg width="112" height="56" viewBox="0 0 112 56" fill="none" xmlns="http://www.w3.org/2000/svg">
<path d="M56 11.8953C56 12.309 55.9185 12.7186 55.7602 13.1008C55.6019 13.4829 55.3699 13.8302 55.0774 14.1227C54.7849 14.4152 54.4376 14.6472 54.0555 14.8055C53.6733 14.9638 53.2637 15.0453 52.85 15.0453C52.4359 15.0459 52.0258 14.9649 51.6431 14.8069C51.2604 14.6488 50.9126 14.4169 50.6196 14.1244C50.3266 13.8318 50.0942 13.4843 49.9356 13.1018C49.777 12.7194 49.6953 12.3094 49.6953 11.8953C49.695 11.4813 49.7764 11.0712 49.9347 10.6886C50.093 10.306 50.3252 9.95838 50.6179 9.66559C50.9107 9.37281 51.2584 9.14063 51.641 8.98231C52.0236 8.824 52.4336 8.74267 52.8477 8.74298C53.2615 8.74268 53.6714 8.82393 54.0538 8.98209C54.4363 9.14026 54.7838 9.37224 55.0766 9.66477C55.3693 9.95731 55.6015 10.3047 55.76 10.687C55.9184 11.0693 56 11.4815 56 11.8953ZM38.6143 42.7233C37.9 42.7337 37.1908 42.6006 36.5287 42.332C35.8667 42.0634 35.2653 41.6647 34.7601 41.1595C34.2549 40.6543 33.8562 40.0529 33.5876 39.3909C33.319 38.7289 33.186 38.0197 33.1963 37.3053H28.4667C28.4667 43.0196 32.9 47.2547 38.514 47.2547C44.128 47.2547 48.6593 42.9216 48.6593 37.3053H44.03C43.9297 40.4576 41.5683 42.7233 38.6143 42.7233ZM50.533 36.1246H55.1623V17.213H50.533V36.1246ZM0 36.127H4.62933V9.33332H0V36.127ZM16.6483 16.6226C10.934 16.6226 6.59867 20.958 6.59867 26.572C6.58746 27.8947 6.83977 29.2065 7.34088 30.4307C7.84198 31.6549 8.58185 32.7671 9.51732 33.7023C10.4528 34.6376 11.5651 35.3772 12.7895 35.878C14.0138 36.3788 15.3256 36.6308 16.6483 36.6193C22.2623 36.6193 26.6957 32.284 26.6957 26.67C26.6957 21.056 22.3603 16.6226 16.6483 16.6226ZM16.6483 32.088C13.5917 32.088 11.2303 29.7243 11.2303 26.572C11.22 25.8576 11.353 25.1484 11.6216 24.4864C11.8902 23.8244 12.2889 23.2229 12.7941 22.7178C13.2993 22.2126 13.9007 21.8139 14.5627 21.5453C15.2248 21.2767 15.934 21.1436 16.6483 21.154C17.3625 21.1439 18.0714 21.2772 18.7332 21.546C19.395 21.8147 19.9961 22.2135 20.501 22.7186C21.006 23.2238 21.4045 23.8251 21.6729 24.4869C21.9414 25.1488 22.0744 25.8578 22.064 26.572C22.064 29.6263 19.8007 32.088 16.6483 32.088ZM48.4633 20.958V17.213H41.8647C40.782 16.723 39.697 16.6226 38.6143 16.6226C32.9 16.6226 28.469 20.958 28.469 26.67C28.469 32.3843 32.9023 36.6193 38.5163 36.6193C44.1303 36.6193 48.5637 32.284 48.5637 26.67C48.5637 24.7006 47.971 22.9273 46.9863 21.5483L48.4633 20.958ZM38.6143 32.088C35.56 32.088 33.1963 29.7243 33.1963 26.572C33.186 25.8576 33.319 25.1484 33.5876 24.4864C33.8562 23.8244 34.2549 23.2229 34.7601 22.7178C35.2653 22.2126 35.8667 21.8139 36.5287 21.5453C37.1908 21.2767 37.9 21.1436 38.6143 21.154C39.3287 21.1436 40.0379 21.2767 40.6999 21.5453C41.362 21.8139 41.9634 22.2126 42.4686 22.7178C42.9737 23.2229 43.3724 23.8244 43.641 24.4864C43.9097 25.1484 44.0427 25.8576 44.0323 26.572C44.0323 29.6263 41.5683 32.088 38.6143 32.088Z" fill="#C14F11"/>
<path d="M105.793 30.2531L99.832 9.97501C99.4601 8.85939 98.5687 8.11017 97.3765 8.11017C96.1844 8.11017 95.2164 8.78282 94.8445 9.89845L90.8961 21.6781H77.1203L73.1719 9.90392C72.8 8.78829 71.832 8.11564 70.6398 8.11564C69.4476 8.11564 68.4797 8.85939 68.1844 9.98048L62.2289 30.2531C62.0047 30.9969 62.3055 31.8172 62.9015 32.2656L83.9781 48.0703L105.126 32.2656C105.716 31.8227 106.017 31.0024 105.793 30.2531Z" fill="#C14F11"/>
</svg>
