<svg xmlns="http://www.w3.org/2000/svg" viewBox="0 0 105.96 39.96"><defs><style>.cls-1{fill:#c25117;}</style></defs><title>Recurso 1</title><g id="Capa_2" data-name="Capa 2"><g id="Capa_1-2" data-name="Capa 1"><path class="cls-1" d="M105.88,22.14l-6-20.28a2.61,2.61,0,0,0-5-.07L91,13.57H77.21L73.26,1.79A2.57,2.57,0,0,0,70.73,0a2.47,2.47,0,0,0-2.45,1.86l-6,20.27a1.91,1.91,0,0,0,.67,2L84.07,40l21.15-15.8A1.89,1.89,0,0,0,105.88,22.14Z"/><path class="cls-1" d="M56,3.88a3.1,3.1,0,0,1-.24,1.2,3.15,3.15,0,0,1-5.14,1,3.08,3.08,0,0,1-.68-1,3.1,3.1,0,0,1-.24-1.2,3.1,3.1,0,0,1,.23-1.21,3.23,3.23,0,0,1,.69-1,3.07,3.07,0,0,1,1-.69,3.15,3.15,0,0,1,2.41,0,3.11,3.11,0,0,1,1,.69,3.2,3.2,0,0,1,.68,1A3.11,3.11,0,0,1,56,3.88ZM38.61,34.7a5.3,5.3,0,0,1-2.08-.39,5.36,5.36,0,0,1-1.77-1.17,5.35,5.35,0,0,1-1.56-3.85H28.47a9.82,9.82,0,0,0,10,10,10,10,0,0,0,10.15-10H44A5.4,5.4,0,0,1,38.61,34.7Zm11.92-6.59h4.63V9.19H50.53ZM0,28.11H4.63V1.31H0ZM16.65,8.6a9.82,9.82,0,0,0-10,10,10,10,0,0,0,.74,3.86,9.77,9.77,0,0,0,2.18,3.27,9.87,9.87,0,0,0,3.27,2.18,10,10,0,0,0,3.86.74,9.88,9.88,0,0,0,10.05-10A9.91,9.91,0,0,0,16.65,8.6Zm0,15.47a5.36,5.36,0,0,1-5.42-5.52,5.3,5.3,0,0,1,.39-2.08,5.31,5.31,0,0,1,2.94-2.94,5.14,5.14,0,0,1,2.09-.39,5.3,5.3,0,0,1,2.08.39A5.16,5.16,0,0,1,20.5,14.7a5.36,5.36,0,0,1,1.17,1.77,5.3,5.3,0,0,1,.39,2.08A5.36,5.36,0,0,1,16.65,24.07ZM48.46,12.94V9.19h-6.6a7.6,7.6,0,0,0-3.25-.59,9.93,9.93,0,0,0-10.14,10,9.82,9.82,0,0,0,10.05,10,9.88,9.88,0,0,0,10-10A8.81,8.81,0,0,0,47,13.53ZM38.61,24.07a5.36,5.36,0,0,1-5.41-5.52,5.35,5.35,0,0,1,1.56-3.85,5.36,5.36,0,0,1,1.77-1.17,5.77,5.77,0,0,1,4.17,0,5.31,5.31,0,0,1,2.94,2.94A5.3,5.3,0,0,1,44,18.55,5.48,5.48,0,0,1,38.61,24.07Z"/></g></g></svg>