<svg width="56" height="40" viewBox="0 0 56 40" fill="none" xmlns="http://www.w3.org/2000/svg">
<path d="M56 3.89532C56 4.30898 55.9185 4.71859 55.7602 5.10077C55.6019 5.48294 55.3699 5.8302 55.0774 6.1227C54.7849 6.41521 54.4376 6.64723 54.0555 6.80554C53.6733 6.96384 53.2637 7.04532 52.85 7.04532C52.4359 7.04593 52.0258 6.9649 51.6431 6.80688C51.2604 6.64885 50.9126 6.41692 50.6196 6.12435C50.3266 5.83179 50.0942 5.48433 49.9356 5.10185C49.777 4.71937 49.6953 4.30937 49.6953 3.89532C49.695 3.48126 49.7764 3.0712 49.9347 2.68861C50.093 2.30601 50.3252 1.95838 50.6179 1.66559C50.9107 1.37281 51.2584 1.14063 51.641 0.982314C52.0236 0.824003 52.4336 0.742675 52.8477 0.742982C53.2615 0.742675 53.6714 0.823926 54.0538 0.982091C54.4363 1.14026 54.7838 1.37224 55.0766 1.66477C55.3693 1.95731 55.6015 2.30466 55.76 2.68699C55.9184 3.06932 56 3.48145 56 3.89532ZM38.6143 34.7233C37.9 34.7337 37.1908 34.6006 36.5287 34.332C35.8667 34.0634 35.2653 33.6647 34.7601 33.1595C34.2549 32.6543 33.8562 32.0529 33.5876 31.3909C33.319 30.7289 33.186 30.0197 33.1963 29.3053H28.4667C28.4667 35.0196 32.9 39.2547 38.514 39.2547C44.128 39.2547 48.6593 34.9216 48.6593 29.3053H44.03C43.9297 32.4576 41.5683 34.7233 38.6143 34.7233ZM50.533 28.1246H55.1623V9.21298H50.533V28.1246ZM0 28.127H4.62933V1.33332H0V28.127ZM16.6483 8.62265C10.934 8.62265 6.59867 12.958 6.59867 18.572C6.58746 19.8947 6.83977 21.2065 7.34088 22.4307C7.84198 23.6549 8.58185 24.7671 9.51732 25.7023C10.4528 26.6376 11.5651 27.3772 12.7895 27.878C14.0138 28.3788 15.3256 28.6308 16.6483 28.6193C22.2623 28.6193 26.6957 24.284 26.6957 18.67C26.6957 13.056 22.3603 8.62265 16.6483 8.62265ZM16.6483 24.088C13.5917 24.088 11.2303 21.7243 11.2303 18.572C11.22 17.8576 11.353 17.1484 11.6216 16.4864C11.8902 15.8244 12.2889 15.2229 12.7941 14.7178C13.2993 14.2126 13.9007 13.8139 14.5627 13.5453C15.2248 13.2767 15.934 13.1436 16.6483 13.154C17.3625 13.1439 18.0714 13.2772 18.7332 13.546C19.395 13.8147 19.9961 14.2135 20.501 14.7186C21.006 15.2238 21.4045 15.8251 21.6729 16.4869C21.9414 17.1488 22.0744 17.8578 22.064 18.572C22.064 21.6263 19.8007 24.088 16.6483 24.088ZM48.4633 12.958V9.21298H41.8647C40.782 8.72298 39.697 8.62265 38.6143 8.62265C32.9 8.62265 28.469 12.958 28.469 18.67C28.469 24.3843 32.9023 28.6193 38.5163 28.6193C44.1303 28.6193 48.5637 24.284 48.5637 18.67C48.5637 16.7006 47.971 14.9273 46.9863 13.5483L48.4633 12.958ZM38.6143 24.088C35.56 24.088 33.1963 21.7243 33.1963 18.572C33.186 17.8576 33.319 17.1484 33.5876 16.4864C33.8562 15.8244 34.2549 15.2229 34.7601 14.7178C35.2653 14.2126 35.8667 13.8139 36.5287 13.5453C37.1908 13.2767 37.9 13.1436 38.6143 13.154C39.3287 13.1436 40.0379 13.2767 40.6999 13.5453C41.362 13.8139 41.9634 14.2126 42.4686 14.7178C42.9737 15.2229 43.3724 15.8244 43.641 16.4864C43.9097 17.1484 44.0427 17.8576 44.0323 18.572C44.0323 21.6263 41.5683 24.088 38.6143 24.088Z" fill="#C14F11"/>
</svg>
